<?xml version="1.0" encoding="UTF-8"?>
<svg id="Layer_1" data-name="Layer 1" xmlns="http://www.w3.org/2000/svg" viewBox="0 0 1366 768">
  <defs>
    <style>
      .cls-1 {
        fill: #fff;
      }
    </style>
  </defs>
  <rect width="1366" height="768"/>
  <g>
    <path class="cls-1" d="M617.13,334.01l-9.11-54.43c-1.12.21-.98,1.26-1.2,2.09-4.31,16.15-4.19,36.65-8.77,53.01-1.37,4.88-5.05,8.81-9.63,10.61l-35.92,10.8,11.74,3.55,26.73,8.1c4,2.17,5.96,5.05,7.18,9.53l9.43,55.02c.45,0,1.13-3.39,1.28-4.1,3.28-16.18,4.56-35.39,9-50.97,1.39-4.88,4.61-8.48,9.03-10.64l36.49-11.09-35.97-10.3c-4.66-1.94-8.98-6.02-10.27-11.18Z"/>
    <path class="cls-1" d="M763.78,334.2l-10-55.03c-4.15,17.19-4.73,36.2-9.13,53.25-1.66,6.48-4.12,9.76-10.18,12.45l-35.32,10.8c3.5,1.32,7.26,2.38,11.12,3.37,8.48,2.17,17.38,3.99,24.85,7.24,6.42,2.8,8.01,5.78,9.58,12.48,4.06,17.26,5.16,35.92,9.52,53.11,4.23-17.31,5.44-36.01,9.72-53.25,1.53-6.17,3.08-9.67,9-12.46l36.49-11.09-35.96-10.31c-4.75-1.88-8.19-5.52-9.68-10.56Z"/>
    <path class="cls-1" d="M697.43,581.4c-4.41,2.48-13.25,11.97-16.91,4.82-2.34-4.58,1.45-7.25,4.64-9.54,9.51-6.8,26.8-13.44,38.34-14.34,3.25-.25,6.43.26,9.63.33,1.8.04.5-4,.05-5.53-8.81-29.72-45.05-15.52-61.9-2.5-3.34,2.59-9.96,11.44-13.65,3.81-2.52-5.19,3.07-8.71,6.59-11.63,7.37-6.07,15.76-10.56,24.57-13.98,6.53-20.11,11.54-41.24,13.01-62.51.96-13.83,1.86-43.07-19.12-40.03-9.03,1.32-9.88,10.56-11.25,17.98-1.71,9.25-2.63,18.68-4.48,27.91-6.43,32.13-19.4,64.68-32.21,94.63-11.84,27.69-38.94,71.31-5.64,95.22,32.5,23.35,70.46-4.31,69.62-42.38-.05-2.49-1.69-4.04.62-6.6,3.6-3.98,6.61.13,8.34.11,4.92-.09,15.87-10.24,18.8-14.47,1.71-2.48,2.4-7.23,6.39-7.02,7.48.37,4.96,8.14,2.42,12.44-5.61,9.51-16.04,16.15-25.9,20.14.33,3.74-2.93,11.8-1.26,14.73,1.36,2.41,4.8,4.09,7.44,4.41,29.22,3.51,52.57-42.26,33.77-65.22-12.16-14.85-37.51-8.84-51.93-.77Z"/>
    <path class="cls-1" d="M764.34,589.38c3.38,11.48,2.23,24.05-2.24,35.01,17.11-2.8,27.24-38.27,2.24-35.01Z"/>
    <path class="cls-1" d="M768.95,216.86c-142.81-68.51-310.56,50.84-285.85,214.09,11.1,73.36,66.05,132.01,134.21,152.86,15.59-34.6,30.89-70.87,38.96-108.31,2.64-12.28,3.44-27.75,7.06-39.13,6.76-21.24,32.91-22.3,43.78-4.18,6.02,10.03,5.27,20.96,5.33,32.3,27.83,8.55,15.23,53.65-9.29,57.76l-2.33,7.54c4.37-.32,8.81-1.01,13.21-.66,17.14,1.38,31.72,19.79,31,37.24,6.08,3.17,11.73,7.36,14.68,13.88,22.41-7.47,44.35-21.72,61.7-38.11,103.54-97.8,72.68-265.28-52.46-325.3ZM652.32,361.63c-.28,22.02-4.23,46.3-15.05,65.55-16.7,29.71-43.46,28.5-59.44-1.04-10.18-18.81-13.6-43-14.22-64.28l-21.65-5.44,21.61-6.17c2.05-25.24,4.46-53.86,20.75-74.16,17.85-22.23,39.92-15.02,52.56,7.84,11.02,19.92,13.73,43.54,15.41,66.06l11.67,3.35,9.39,2.69-21.02,5.59ZM798.37,361.21c-1,22.08-4.07,46.78-15.04,66.15-18.69,33-47.37,24.59-61.63-6.64-8.13-17.83-11-39.74-11.45-59.28l-.52-.13-21.13-5.31,21.04-6.14c1.48-20.35,3.68-42.43,12.48-60.96,15.01-31.62,43.03-37.53,61.4-4.78,10.76,19.2,13.5,43.67,14.82,65.46l11.64,3.44,8.82,2.61-20.43,5.58Z"/>
    <path class="cls-1" d="M869.06,532.7c20.96-28.27,34.63-59.73,40.63-93.5,12.98-72.99-8.43-145.53-58.73-199-24.11-25.63-54.15-45.73-86.86-58.15-34.53-13.1-70.74-17.58-107.62-13.33-64.13,7.41-122.93,42.56-161.31,96.45-18.75,26.33-31.69,55.53-38.46,86.78-7.09,32.78-6.98,66.12.33,99.12,8.26,37.29,26.83,72.22,53.69,101.02,23.21,24.88,51.71,44.31,83.01,56.69-4.98,18.52-3.66,37.86,3.98,53.69,7.86,16.27,21.42,27.36,39.22,32.06,6.58,1.74,12.96,2.59,19.11,2.57,20.4-.06,38.15-9.68,51.64-28.13,6.53,2,13.64,2.3,20.84.81,12.92-2.69,25.7-11.14,34.12-22.26,21.69-2.69,37.79-20.61,39.34-45.06.19-3.08.06-5.76-.29-8.28,26.17-16.03,49.32-37.14,67.37-61.48ZM789.58,601.67c-1.2,19.15-14.54,34.35-33.8,33.73-9.89,17.35-34.88,30.77-52.57,17.54-13.89,24.66-35.06,36.97-63.1,29.57-35.76-9.45-44.51-49.5-30.61-81.22-68.17-22.6-124.24-80.26-140.34-152.91-28.6-129.09,63.18-252.82,188.72-267.31,141.89-16.39,265.84,108.16,239.56,255.94-11.59,65.21-54.08,119.83-110,151.1,1.47,4.8,2.45,8.38,2.13,13.57Z"/>
    <path class="cls-1" d="M713.19,476.13l-1.85.95-5.3,32.78c3.21-1.16,5.65-4.31,7.38-7.18,4.83-7.9,6.85-19.41-.24-26.55Z"/>
    <path class="cls-1" d="M517.52,590.8l-42.46,38.96,35.3-45.55c1.88-2.4,1.57-5.84-.67-7.89l-10.92-10.05-65.92,58.71,9.31,8.57,55.56-51.22-46.33,59.7,4.21,3.87,5.01,4.61,4.21,3.87,55.64-51.14-46.42,59.62,9.31,8.57,53.03-70.58-10.92-10.05c-2.24-2.06-5.68-2.09-7.92-.01Z"/>
    <polygon class="cls-1" points="467.33 519.77 456.73 526.45 467.04 542.82 445.74 556.25 436.98 542.35 426.38 549.04 435.14 562.93 413.94 576.3 403.62 559.93 393.02 566.62 410.02 593.58 484.33 546.73 467.33 519.77"/>
    <path class="cls-1" d="M445.8,463.11l-36.81,8.24-2.77-12.35,36.81-8.25-2.74-12.23-80.03,17.93c-3.21.72-5.11,3.89-4.42,6.97l5.69,25.41c.69,3.09,3.77,5.14,6.98,4.42l80.03-17.92-2.74-12.23ZM378,478.3c-3.21.72-6.28-1.34-6.98-4.42l-.21-.95c-.69-3.09,1.22-6.26,4.42-6.98l18.76-4.2,2.77,12.35-18.76,4.2Z"/>
    <path class="cls-1" d="M438.5,407.98l-37.72-.33.06-6.81c.03-3.16,2.73-5.82,5.89-5.79l31.88.28.11-12.53-34.55-.3c-7.42-.06-9.3,6.37-9.3,6.37,0,0-2.38-6.47-8.7-6.52-6.33-.06-29.44-.26-29.44-.26-3.28-.03-5.86,2.63-5.89,5.79l-.28,31.88,87.84.76.11-12.53ZM388.25,407.54l-25.06-.22.06-6.81c.03-3.16,2.61-5.82,5.89-5.79l13.38.12c3.28.03,5.82,2.73,5.79,5.89l-.06,6.81Z"/>
    <polygon class="cls-1" points="448.24 333.45 436.02 330.7 431.77 349.57 407.2 344.03 410.81 328.01 398.58 325.26 394.97 341.28 370.52 335.78 374.77 316.9 362.55 314.15 355.55 345.25 441.24 364.55 448.24 333.45"/>
    <polygon class="cls-1" points="408.18 239.91 472.14 279.67 478.82 268.92 414.86 229.16 421.48 218.52 410.84 211.91 404.22 222.55 397.54 233.29 390.93 243.94 401.57 250.55 408.18 239.91"/>
    <polygon class="cls-1" points="504.41 236.44 477.56 209.96 486.44 200.95 513.29 227.44 522.09 218.51 459.56 156.83 450.76 165.75 477.52 192.15 468.63 201.16 441.87 174.76 433.07 183.68 495.61 245.37 504.41 236.44"/>
    <polygon class="cls-1" points="563.32 189.75 556.47 179.26 540.27 189.83 526.5 168.75 540.26 159.77 533.4 149.27 519.65 158.25 505.95 137.27 522.14 126.69 515.29 116.2 488.6 133.63 536.63 207.18 563.32 189.75"/>
    <path class="cls-1" d="M597.11,127.93c.77,3.19,3.97,5.05,7.05,4.3l13.13-3.17c3.08-.74,6.31,1.23,7.05,4.3l3.17,13.13c.74,3.08-1.23,6.31-4.3,7.05l-.95.23c-3.07.74-6.31-1.23-7.05-4.31l-1.57-6.5-12.18,2.94,4.52,18.69c.77,3.19,3.97,5.05,7.05,4.3l25.31-6.12c3.07-.74,5.08-3.86,4.3-7.05l-9.06-37.49c-.74-3.07-3.97-5.05-7.05-4.3l-13.13,3.17c-3.08.74-6.28-1.11-7.05-4.31l-3.14-13.01c-.77-3.19,1.23-6.31,4.31-7.05l.95-.23c3.07-.74,6.28,1.11,7.05,4.3l1.57,6.51,12.18-2.94-4.52-18.69c-.77-3.19-3.97-5.05-7.05-4.3l-25.31,6.12c-3.07.74-5.08,3.86-4.3,7.05l9.03,37.37Z"/>
    <polygon class="cls-1" points="694.17 158.73 693.89 146.2 674.55 146.63 673.98 121.45 690.41 121.08 690.13 108.55 673.7 108.92 673.14 83.86 692.48 83.43 692.2 70.9 660.33 71.62 662.3 159.44 694.17 158.73"/>
    <path class="cls-1" d="M716.47,161.02l25.57,4.93c3.11.6,6.22-1.4,6.84-4.63l6.04-31.3-12.3-2.37-3.66,19c-.6,3.11-3.74,5.23-6.84,4.63l-.96-.18c-3.11-.6-5.23-3.73-4.63-6.84l9.68-50.18c.62-3.23,3.73-5.23,6.84-4.63l.96.18c3.11.6,5.25,3.62,4.63,6.84l-3.64,18.88,12.3,2.37,6.01-31.18c.62-3.23-1.52-6.24-4.63-6.84l-25.57-4.93c-3.11-.6-6.22,1.4-6.84,4.63l-14.43,74.79c-.62,3.22,1.52,6.24,4.63,6.84Z"/>
    <path class="cls-1" d="M791.85,143.09l6.23,2.76c2.89,1.28,4.25,4.81,2.97,7.71l-12.92,29.14,11.46,5.08,14.01-31.59c3.01-6.78-2.15-11.07-2.15-11.07,0,0,6.88.39,9.45-5.39,2.56-5.78,11.94-26.92,11.94-26.92,1.33-3-.08-6.42-2.97-7.71l-29.14-12.92-35.61,80.31,11.46,5.08,15.29-34.48ZM807.09,108.72l6.23,2.76c2.89,1.28,4.3,4.7,2.97,7.71l-5.43,12.24c-1.33,3-4.81,4.25-7.71,2.97l-6.23-2.76,10.16-22.91Z"/>
    <polygon class="cls-1" points="841.04 216.15 848.43 206.03 832.81 194.61 847.68 174.28 860.94 183.97 868.33 173.86 855.07 164.16 869.86 143.93 885.48 155.34 892.88 145.23 867.14 126.41 815.3 197.34 841.04 216.15"/>
    <polygon class="cls-1" points="860.6 235.32 869.05 244.73 925.09 194.43 933.47 203.75 942.79 195.38 934.42 186.05 925.97 176.64 917.6 167.31 908.27 175.68 916.64 185.01 860.6 235.32"/>
    <path class="cls-1" d="M939.99,286.13l5.06,12.52c1.18,2.93-.3,6.42-3.23,7.6l-12.52,5.05c-2.93,1.18-6.42-.3-7.6-3.23l-.36-.9c-1.18-2.93.3-6.42,3.23-7.6l6.21-2.5-4.69-11.62-17.83,7.19c-3.05,1.23-4.41,4.67-3.23,7.6l9.75,24.15c1.18,2.93,4.55,4.46,7.6,3.23l35.77-14.44c2.93-1.18,4.41-4.67,3.23-7.6l-5.05-12.52c-1.18-2.93.18-6.37,3.23-7.6l12.41-5.01c3.05-1.23,6.42.3,7.6,3.23l.36.9c1.18,2.93-.18,6.37-3.23,7.6l-6.21,2.5,4.69,11.62,17.83-7.19c3.05-1.23,4.41-4.67,3.23-7.6l-9.74-24.14c-1.18-2.93-4.56-4.46-7.6-3.23l-35.65,14.39c-3.05,1.23-4.41,4.67-3.23,7.6Z"/>
    <path class="cls-1" d="M922.65,353.03l4,25.73c.49,3.13,3.42,5.38,6.67,4.87l75.26-11.71c3.25-.5,5.36-3.54,4.87-6.67l-4-25.73c-.49-3.13-3.42-5.38-6.67-4.87l-75.26,11.71c-3.25.5-5.36,3.54-4.87,6.67ZM941.84,356.82l50.5-7.85c3.25-.5,6.18,1.75,6.67,4.87l.15.96c.49,3.13-1.63,6.16-4.87,6.67l-50.49,7.85c-3.13.49-6.18-1.75-6.67-4.87l-.15-.96c-.49-3.13,1.75-6.18,4.87-6.67Z"/>
    <path class="cls-1" d="M1010.04,408.76l-75.95-5.66c-3.28-.24-6.02,2.24-6.26,5.39l-1.93,25.96c-.23,3.16,2.11,6.01,5.39,6.26l31.79,2.37.93-12.5-19.29-1.44c-3.15-.23-5.62-3.1-5.39-6.26l.07-.97c.23-3.15,3.1-5.63,6.26-5.39l50.96,3.79c3.28.24,5.63,3.1,5.39,6.26l-.07.97c-.23,3.15-2.98,5.63-6.26,5.39l-19.17-1.43-.93,12.5,31.67,2.36c3.28.24,6.02-2.24,6.26-5.39l1.93-25.96c.23-3.16-2.11-6.01-5.39-6.26Z"/>
    <rect class="cls-1" x="955.82" y="432.17" width="12.65" height="87.84" transform="translate(259.31 1287.51) rotate(-75.43)"/>
    <polygon class="cls-1" points="899.35 518.75 910.79 523.86 918.67 506.2 941.67 516.46 934.98 531.46 946.42 536.56 953.12 521.57 976 531.78 968.12 549.44 979.56 554.55 992.55 525.44 912.34 489.65 899.35 518.75"/>
    <polygon class="cls-1" points="945.74 586.09 884.74 541.93 877.32 552.18 938.32 596.34 930.97 606.49 941.12 613.84 948.47 603.69 955.89 593.44 963.24 583.29 953.09 575.94 945.74 586.09"/>
    <polygon class="cls-1" points="849.68 582.59 840.28 590.88 861.37 614.79 887.9 666.02 897.29 657.73 878.17 624.46 908.88 647.51 918.28 639.22 870.76 606.5 849.68 582.59"/>
  </g>
</svg>